<svg xmlns="http://www.w3.org/2000/svg" width="27.501" height="27.217" viewBox="0 0 27.501 27.217">
  <path id="noun-clone-4488925" d="M164.469,64.122H151.463a4.069,4.069,0,0,0-4.064,4.064V81.192a4.069,4.069,0,0,0,4.064,4.064h13.006a4.069,4.069,0,0,0,4.064-4.064V68.186h0a4.069,4.069,0,0,0-4.064-4.064ZM151.463,83.631h0a2.441,2.441,0,0,1-2.439-2.439V68.187h0a2.441,2.441,0,0,1,2.439-2.439h13.006a2.441,2.441,0,0,1,2.439,2.439V81.192a2.441,2.441,0,0,1-2.439,2.439ZM160.841,62.4h0a2.441,2.441,0,0,0-2.439-2.439H145.4a2.441,2.441,0,0,0-2.439,2.439V75.41a2.441,2.441,0,0,0,2.439,2.439v1.626a4.069,4.069,0,0,1-4.064-4.064V62.4h0A4.069,4.069,0,0,1,145.4,58.34H158.4a4.069,4.069,0,0,1,4.064,4.064Z" transform="translate(-141.183 -58.19)" fill="#745be7" stroke="#745be7" stroke-width="0.3"/>
</svg>
