<svg xmlns="http://www.w3.org/2000/svg" width="46" height="46" viewBox="0 0 46 46">
    <g data-name="Group 15980" transform="translate(-33 -1036)">
        <circle data-name="Ellipse 549" cx="23" cy="23" r="23" transform="translate(33 1036)" style="fill:#ede8e8"/>
        <g data-name="Group 23993">
            <path data-name="Path 27434" d="M174.474 13.764h9.854a.4.4 0 0 0 .355-.533l-.71-2.264a1.333 1.333 0 0 0-1.243-.932h-1.465a1.949 1.949 0 0 0-3.817 0h-1.465a1.279 1.279 0 0 0-1.243.932l-.71 2.264a.472.472 0 0 0 .044.355.8.8 0 0 0 .4.178z" transform="translate(-123.338 1035.518)" style="fill:#03846f"/>
            <path data-name="Path 27447" d="M174.36 192.61h13.485v17.516H174.36z" transform="translate(-124.955 859.735)" style="fill:#fff"/>
            <path data-name="Path 27435" d="M174.36 192.61h2.131v2.131h-2.131z" transform="translate(-123.668 861.023)" style="fill:#03846f"/>
            <path data-name="Path 27436" d="M174.36 307.15h2.131v2.131h-2.131z" transform="translate(-123.668 752.475)" style="fill:#03846f"/>
            <path data-name="Path 27437" d="M174.36 421.7h2.131v2.131h-2.131z" transform="translate(-123.668 643.917)" style="fill:#03846f"/>
            <path data-name="Path 27438" d="M122.32 84.848h-2.53l.133.488a1.224 1.224 0 0 1-.222 1.154 1.3 1.3 0 0 1-1.021.533h-9.81a1.284 1.284 0 0 1-1.2-1.687l.133-.488h-2.574a.419.419 0 0 0-.444.444v23.526a.419.419 0 0 0 .444.444h17.045a.445.445 0 0 0 .444-.444V85.292a.408.408 0 0 0-.4-.444zm-10.875 20.2a.445.445 0 0 1-.444.444h-3.018a.419.419 0 0 1-.444-.444v-3.018a.419.419 0 0 1 .444-.444H111a.445.445 0 0 1 .444.444zm0-5.993a.477.477 0 0 1-.445.445h-3.018a.445.445 0 0 1-.444-.444v-3.022a.445.445 0 0 1 .444-.444H111a.477.477 0 0 1 .444.444zm0-5.993a.477.477 0 0 1-.445.438h-3.018a.445.445 0 0 1-.444-.444v-3.015a.419.419 0 0 1 .444-.444H111a.445.445 0 0 1 .444.444zm8.123 10.964h-3.6a.477.477 0 0 1-.444-.444.445.445 0 0 1 .444-.444h3.6a.444.444 0 0 1 0 .888zm0-6.037h-3.6a.444.444 0 1 1 0-.888h3.6a.477.477 0 0 1 .444.444.445.445 0 0 1-.444.442zm0-5.993h-3.6a.445.445 0 0 1-.444-.444.477.477 0 0 1 .444-.444h3.6a.477.477 0 0 1 .444.444.419.419 0 0 1-.444.442z" transform="translate(-57.734 963.147)" style="fill:#0ec6a8"/>
        </g>
    </g>
</svg>
